HIERARCHY
ROOT Hips
{
	OFFSET 0.000000 0.000000 0.000000
	CHANNELS 6 Xposition Yposition Zposition Xrotation Yrotation Zrotation
	JOINT LeftUpLeg_virtual
	{
		OFFSET 0.000000 0.000000 0.000000
		CHANNELS 3 Xrotation Yrotation Zrotation
		JOINT LeftUpLeg
		{
			OFFSET 13.026900 -6.336304 -1.092800
			CHANNELS 3 Xrotation Yrotation Zrotation
			JOINT LeftLeg
			{
				OFFSET 0.524474 -46.096886 9.782700
				CHANNELS 3 Xrotation Yrotation Zrotation
				JOINT LeftFoot
				{
					OFFSET -0.524474 -53.427422 -12.948200
					CHANNELS 3 Xrotation Yrotation Zrotation
					JOINT LeftToeBase
					{
						OFFSET 0.192200 -14.009700 16.364100
						CHANNELS 3 Xrotation Yrotation Zrotation
						JOINT LeftToe_End
						{
							OFFSET -1.784700 -0.561700 9.474800
							CHANNELS 3 Xrotation Yrotation Zrotation
							End Site
							{
								OFFSET 0 0 0
							}
						}
					}
				}
			}
		}
	}
	JOINT RightUpLeg_virtual
	{
		OFFSET 0.000000 0.000000 0.000000
		CHANNELS 3 Xrotation Yrotation Zrotation
		JOINT RightUpLeg
		{
			OFFSET -12.883000 -6.336304 -1.092800
			CHANNELS 3 Xrotation Yrotation Zrotation
			JOINT RightLeg
			{
				OFFSET -0.524587 -46.096825 9.782800
				CHANNELS 3 Xrotation Yrotation Zrotation
				JOINT RightFoot
				{
					OFFSET 0.524587 -53.427383 -12.948300
					CHANNELS 3 Xrotation Yrotation Zrotation
					JOINT RightToeBase
					{
						OFFSET -0.192200 -14.009700 16.364100
						CHANNELS 3 Xrotation Yrotation Zrotation
						JOINT RightToe_End
						{
							OFFSET 1.784700 -0.561700 9.474800
							CHANNELS 3 Xrotation Yrotation Zrotation
							End Site
							{
								OFFSET 0 0 0
							}
						}
					}
				}
			}
		}
	}
	JOINT Spine_virtual
	{
		OFFSET 0.000000 0.000000 0.000000
		CHANNELS 3 Xrotation Yrotation Zrotation
		JOINT Spine
		{
			OFFSET 0.072000 7.257294 -0.789700
			CHANNELS 3 Xrotation Yrotation Zrotation
			JOINT Spine1
			{
				OFFSET 0.000000 12.508769 -0.658067
				CHANNELS 3 Xrotation Yrotation Zrotation
				JOINT Spine1_split
				{
					OFFSET 0.000000 12.508769 -0.658067
					CHANNELS 3 Xrotation Yrotation Zrotation
					JOINT Spine2
					{
						OFFSET 0.000000 12.508769 -0.658067
						CHANNELS 3 Xrotation Yrotation Zrotation
						JOINT Neck_virtual
						{
							OFFSET 0.000000 0.000000 0.000000
							CHANNELS 3 Xrotation Yrotation Zrotation
							JOINT Neck
							{
								OFFSET 0.000000 14.033295 7.520400
								CHANNELS 3 Xrotation Yrotation Zrotation
								JOINT Head
								{
									OFFSET 0.000000 8.198502 5.703100
									CHANNELS 3 Xrotation Yrotation Zrotation
									JOINT HeadTop_End
									{
										OFFSET 0.000000 17.760803 13.332701
										CHANNELS 3 Xrotation Yrotation Zrotation
										End Site
										{
											OFFSET 0 0 0
										}
									}
								}
							}
						}
						JOINT LeftShoulder_virtual
						{
							OFFSET 0.000000 0.000000 0.000000
							CHANNELS 3 Xrotation Yrotation Zrotation
							JOINT LeftShoulder
							{
								OFFSET 6.292450 5.785301 -0.669000
								CHANNELS 3 Xrotation Yrotation Zrotation
								JOINT LeftShoulder_split
								{
									OFFSET 6.292450 5.785301 -0.669000
									CHANNELS 3 Xrotation Yrotation Zrotation
									JOINT LeftArm
									{
										OFFSET 13.907140 -6.093903 1.965100
										CHANNELS 3 Xrotation Yrotation Zrotation
										JOINT LeftForeArm
										{
											OFFSET 34.140198 0.000000 0.000000
											CHANNELS 3 Xrotation Yrotation Zrotation
											JOINT LeftHand
											{
												OFFSET 40.960209 0.000000 0.000000
												CHANNELS 3 Xrotation Yrotation Zrotation
												End Site
												{
													OFFSET 0 0 0
												}
											}
										}
									}
								}
							}
						}
						JOINT RightShoulder_virtual
						{
							OFFSET 0.000000 0.000000 0.000000
							CHANNELS 3 Xrotation Yrotation Zrotation
							JOINT RightShoulder
							{
								OFFSET -6.292450 5.785301 -0.669000
								CHANNELS 3 Xrotation Yrotation Zrotation
								JOINT RightShoulder_split
								{
									OFFSET -6.292450 5.785301 -0.669000
									CHANNELS 3 Xrotation Yrotation Zrotation
									JOINT RightArm
									{
										OFFSET -13.907140 -6.093903 1.965100
										CHANNELS 3 Xrotation Yrotation Zrotation
										JOINT RightForeArm
										{
											OFFSET -34.140198 0.000000 0.000000
											CHANNELS 3 Xrotation Yrotation Zrotation
											JOINT RightHand
											{
												OFFSET -40.960209 0.000000 0.000000
												CHANNELS 3 Xrotation Yrotation Zrotation
												End Site
												{
													OFFSET 0 0 0
												}
											}
										}
									}
								}
							}
						}
					}
				}
			}
		}
	}
}
MOTION
Frames: 8
Frame Time: 0.03333333
11.682651 18.742149 242.311035 0.000000 0.000000 0.000000 -94.502825 -1.565787 1.154972 -40.805603 -39.172938 32.038935 92.210634 -13.866367 3.657173 12.229576 -7.407922 -16.315135 -6.469457 0.029436 -0.750691 0.000000 0.000000 0.000000 -98.248358 1.798433 3.498257 -50.944824 15.690893 -23.626179 89.603735 7.948798 -3.547317 13.017284 4.845880 19.774251 6.423967 0.155635 0.947535 0.000000 0.000000 0.000000 -95.691394 -1.184345 -0.201967 5.039162 -1.055441 1.216883 2.226323 -0.282613 0.069355 0.615200 -1.050290 -0.125593 0.000000 0.000000 0.000000 0.693504 -0.662281 0.774220 10.078114 -1.648579 1.321103 20.578844 0.063289 0.909826 0.000000 0.000000 0.000000 -0.068359 -0.320369 0.204703 -0.034225 -16.359833 -5.354948 -3.914583 5.550773 -2.088223 66.501952 -21.396146 -39.833161 -0.667964 -38.855276 -0.743822 0.000000 0.000000 0.000000 0.116972 -1.009392 0.295283 -2.037535 4.087007 16.457348 9.169836 6.521900 -3.722382 71.232036 26.307988 23.014963 -0.074720 22.817142 -0.052770 0.000000 0.000000 0.000000 
12.318700 18.746971 242.315659 0.000000 0.000000 0.000000 -94.726159 -1.653191 1.109598 -41.566752 -39.322919 30.461670 92.152926 -13.016771 3.728288 11.831323 -7.068973 -15.712990 -6.378250 0.009098 -0.751958 0.000000 0.000000 0.000000 -98.127210 1.432934 3.188134 -50.834113 13.927888 -24.583417 88.675246 7.843417 -3.429201 11.771470 4.915873 20.281526 6.330600 0.212912 0.827942 0.000000 0.000000 0.000000 -95.731863 -1.259920 -0.381843 5.476997 -1.052599 0.966741 2.395066 -0.285971 0.076095 0.563097 -0.912894 -0.099144 0.000000 0.000000 0.000000 0.879744 -0.639475 0.731704 10.772629 -2.259222 1.331219 22.341252 -0.812067 0.892856 0.000000 0.000000 0.000000 0.030361 -0.286333 0.269953 0.110441 -16.546714 -5.675812 -3.301926 5.959048 -2.151608 65.869122 -20.623633 -40.124534 -1.145703 -39.906866 -1.069707 0.000000 0.000000 0.000000 0.205636 -1.001262 0.249036 -2.294766 3.648410 17.016253 9.733403 6.437388 -3.726905 69.670231 25.599455 22.981903 -0.221321 23.087153 0.226902 0.000000 0.000000 0.000000 
13.015665 18.783852 242.438309 0.000000 0.000000 0.000000 -94.900506 -1.937873 0.874858 -42.203862 -39.079283 29.296167 92.053724 -11.980761 3.643371 11.452422 -6.818325 -15.154095 -6.655512 -0.020039 -0.690069 0.000000 0.000000 0.000000 -97.929237 1.045021 2.841375 -50.316730 11.664673 -25.691504 87.582908 7.732584 -3.217293 10.217261 4.974708 20.648982 6.201236 0.236586 0.666166 0.000000 0.000000 0.000000 -95.907549 -1.362364 -0.557651 6.089563 -1.105653 0.641895 2.660335 -0.311148 0.084640 0.717853 -0.953623 -0.163720 0.000000 0.000000 0.000000 1.111352 -0.649744 0.689882 11.598645 -2.762976 1.215259 23.863892 -1.596357 0.772950 0.000000 0.000000 0.000000 0.205473 -0.291030 0.306040 0.303239 -16.331783 -5.980707 -2.534280 6.094174 -2.174061 65.096825 -19.695972 -39.919150 -1.970747 -40.430273 -1.570761 0.000000 0.000000 0.000000 0.384356 -1.023076 0.180154 -2.525171 3.301551 17.375491 10.274227 6.415890 -3.758540 67.568459 24.873119 23.416759 -0.434235 23.554462 0.493435 0.000000 0.000000 0.000000 
13.701684 18.865250 242.615906 0.000000 0.000000 0.000000 -95.013758 -2.361307 0.426455 -43.010896 -38.507299 28.464856 92.211447 -10.977734 3.542448 11.385649 -6.922861 -14.702134 -7.281349 -0.077519 -0.541710 0.000000 0.000000 0.000000 -97.727959 0.711051 2.476754 -49.432353 8.984304 -26.754573 86.205006 7.614483 -2.924050 8.463527 4.960926 20.929586 6.106194 0.222127 0.472949 0.000000 0.000000 0.000000 -96.126184 -1.494537 -0.759567 6.767301 -1.221375 0.327787 3.015866 -0.337387 0.106564 0.866512 -1.104166 -0.216874 0.000000 0.000000 0.000000 1.399648 -0.687714 0.665567 12.556412 -3.150992 1.000296 25.153848 -2.240768 0.607221 0.000000 0.000000 0.000000 0.464762 -0.323020 0.324615 0.540083 -15.647639 -6.403938 -1.652933 5.944523 -2.082556 64.089113 -18.689940 -39.104677 -2.901904 -40.557349 -2.068966 0.000000 0.000000 0.000000 0.673363 -1.065297 0.117531 -2.746580 3.205059 17.716191 10.649142 6.514310 -3.815720 65.212993 24.204618 24.219663 -0.636931 23.988073 0.695580 0.000000 0.000000 0.000000 
14.361341 19.064148 242.701920 0.000000 0.000000 0.000000 -95.013662 -2.757749 -0.127797 -44.236758 -37.679712 27.684988 92.770327 -10.103274 3.501802 11.624936 -7.321712 -14.203220 -7.903795 -0.156600 -0.382649 0.000000 0.000000 0.000000 -97.588828 0.484878 2.098547 -48.227484 6.063752 -27.616932 84.377008 7.552687 -2.648196 6.650897 4.856680 21.249700 6.093029 0.179813 0.249770 0.000000 0.000000 0.000000 -96.233739 -1.646917 -1.046775 7.385367 -1.375187 0.132052 3.425400 -0.350600 0.143511 0.896675 -1.331829 -0.390314 0.000000 0.000000 0.000000 1.749499 -0.747565 0.649964 13.569948 -3.397316 0.722668 26.225691 -2.772657 0.473692 0.000000 0.000000 0.000000 0.798576 -0.367679 0.334641 0.818070 -14.383019 -7.075859 -0.655532 5.478395 -1.887832 62.940849 -17.728613 -37.660826 -3.709570 -40.692133 -2.442397 0.000000 0.000000 0.000000 1.066623 -1.127893 0.075215 -2.975550 3.460647 18.163648 10.740436 6.674739 -3.761991 62.853580 23.622006 25.111341 -0.787941 24.159107 0.816872 0.000000 0.000000 0.000000 
15.014569 19.365425 242.650955 0.000000 0.000000 0.000000 -94.857811 -2.970163 -0.618912 -45.934788 -36.764036 26.663436 93.664495 -9.290366 3.553324 12.032037 -7.842382 -13.618736 -8.139885 -0.225658 -0.311114 0.000000 0.000000 0.000000 -97.422321 0.425560 1.732708 -46.770875 3.104204 -28.202589 82.062271 7.531271 -2.394247 4.891806 4.617191 21.672757 6.133720 0.121943 0.030437 0.000000 0.000000 0.000000 -96.155096 -1.803679 -1.454965 7.902199 -1.541843 0.122076 3.869619 -0.348350 0.182670 0.800392 -1.530862 -0.442840 0.000000 0.000000 0.000000 2.159336 -0.819922 0.641872 14.527689 -3.520055 0.438061 27.182761 -3.169325 0.394372 0.000000 0.000000 0.000000 1.201087 -0.416426 0.329735 1.152212 -12.535523 -8.055301 0.356569 4.755766 -1.589447 61.688199 -16.969318 -35.655872 -4.300253 -40.973717 -2.675499 0.000000 0.000000 0.000000 1.554356 -1.194926 0.045702 -3.215820 4.030415 18.735132 10.540942 6.850755 -3.689992 60.676204 23.065813 25.782882 -0.880598 24.065968 0.864787 0.000000 0.000000 0.000000 
15.670182 19.732185 242.350861 0.000000 0.000000 0.000000 -94.627182 -3.011297 -1.045505 -47.880603 -35.851171 25.271929 94.631964 -8.441392 3.674023 12.465864 -8.311027 -12.900996 -8.182060 -0.262459 -0.293130 0.000000 0.000000 0.000000 -97.226240 0.522720 1.384993 -45.088497 0.274810 -28.461164 79.392842 7.533023 -2.193089 3.233562 4.199707 22.193918 6.166824 0.047712 -0.161398 0.000000 0.000000 0.000000 -95.844643 -1.937424 -1.939683 8.328154 -1.677944 0.311675 4.348968 -0.328672 0.203260 0.620299 -1.684293 -0.492899 0.000000 0.000000 0.000000 2.614845 -0.894818 0.624758 15.317456 -3.555077 0.210464 28.112364 -3.450384 0.391336 0.000000 0.000000 0.000000 1.671182 -0.475515 0.297298 1.602935 -10.155721 -9.302923 1.267920 3.991956 -1.306986 60.379972 -16.483866 -33.137742 -4.685834 -41.246051 -2.846124 0.000000 0.000000 0.000000 2.103099 -1.252070 0.021804 -3.446193 4.833609 19.394641 10.088784 7.061343 -3.648229 58.614204 22.388448 26.161213 -0.940026 23.968203 0.901908 0.000000 0.000000 0.000000 
16.339731 20.108246 241.881729 0.000000 0.000000 0.000000 -94.275810 -2.941309 -1.399032 -49.859240 -34.869823 23.530733 95.411527 -7.451579 3.798356 12.725938 -8.585397 -11.930827 -8.194730 -0.264794 -0.328750 0.000000 0.000000 0.000000 -96.929223 0.688972 1.028016 -43.298123 -2.307306 -28.434375 76.565854 7.524905 -2.050481 1.704693 3.585555 22.787118 6.180726 -0.032047 -0.311291 0.000000 0.000000 0.000000 -95.281760 -2.041107 -2.471893 8.710481 -1.748346 0.645592 4.875856 -0.304920 0.195872 0.537665 -1.760043 -0.529443 0.000000 0.000000 0.000000 3.096677 -0.973168 0.580646 15.855342 -3.520553 0.064465 29.049481 -3.632645 0.459622 0.000000 0.000000 0.000000 2.220022 -0.555403 0.221986 2.210096 -7.258953 -10.680339 2.002789 3.083991 -0.936138 59.175413 -16.315935 -30.110944 -4.940204 -41.344685 -3.027034 0.000000 0.000000 0.000000 2.699737 -1.306200 -0.018818 -3.651723 5.684319 20.031592 9.619840 7.290375 -3.582926 56.612723 21.440949 26.321083 -0.979147 24.154127 0.928486 0.000000 0.000000 0.000000 
